<mxfile host="app.diagrams.net" modified="2023-03-08T20:31:18.335Z" agent="5.0 (Macintosh; Intel Mac OS X 10_15_7) AppleWebKit/605.1.15 (KHTML, like Gecko) Version/16.3 Safari/605.1.15" etag="pD3Ja7vMhV96MoU7-m_m" version="21.0.4" type="github">
  <diagram name="Page-1" id="jlzfXwpS1hxZWyt-3gQ-">
    <mxGraphModel dx="1434" dy="864" grid="1" gridSize="10" guides="1" tooltips="1" connect="1" arrows="1" fold="1" page="1" pageScale="1" pageWidth="850" pageHeight="1100" math="0" shadow="0">
      <root>
        <mxCell id="0" />
        <mxCell id="1" parent="0" />
        <mxCell id="GPVjwP7J1jZu0ZkHW_kr-2" value="&amp;nbsp;RAW DATA" style="text;html=1;align=center;verticalAlign=middle;resizable=0;points=[];autosize=1;strokeColor=none;fillColor=none;" vertex="1" parent="1">
          <mxGeometry x="86.75" y="480" width="90" height="30" as="geometry" />
        </mxCell>
        <mxCell id="GPVjwP7J1jZu0ZkHW_kr-23" style="edgeStyle=orthogonalEdgeStyle;rounded=0;orthogonalLoop=1;jettySize=auto;html=1;entryX=0;entryY=0.5;entryDx=0;entryDy=0;entryPerimeter=0;" edge="1" parent="1" source="GPVjwP7J1jZu0ZkHW_kr-3" target="GPVjwP7J1jZu0ZkHW_kr-7">
          <mxGeometry relative="1" as="geometry">
            <Array as="points">
              <mxPoint x="125" y="325" />
            </Array>
          </mxGeometry>
        </mxCell>
        <mxCell id="GPVjwP7J1jZu0ZkHW_kr-3" value="AWS S3" style="text;html=1;align=center;verticalAlign=middle;resizable=0;points=[];autosize=1;strokeColor=none;fillColor=none;" vertex="1" parent="1">
          <mxGeometry x="90" y="340" width="70" height="30" as="geometry" />
        </mxCell>
        <mxCell id="GPVjwP7J1jZu0ZkHW_kr-22" style="edgeStyle=orthogonalEdgeStyle;rounded=0;orthogonalLoop=1;jettySize=auto;html=1;entryX=1;entryY=0.5;entryDx=0;entryDy=0;entryPerimeter=0;" edge="1" parent="1" source="GPVjwP7J1jZu0ZkHW_kr-4" target="GPVjwP7J1jZu0ZkHW_kr-10">
          <mxGeometry relative="1" as="geometry">
            <Array as="points">
              <mxPoint x="408" y="485" />
            </Array>
          </mxGeometry>
        </mxCell>
        <mxCell id="GPVjwP7J1jZu0ZkHW_kr-4" value="" style="outlineConnect=0;dashed=0;verticalLabelPosition=bottom;verticalAlign=top;align=center;html=1;shape=mxgraph.aws3.athena;fillColor=#F58534;gradientColor=none;" vertex="1" parent="1">
          <mxGeometry x="370" y="386.75" width="76.5" height="76.5" as="geometry" />
        </mxCell>
        <mxCell id="GPVjwP7J1jZu0ZkHW_kr-5" value="" style="outlineConnect=0;dashed=0;verticalLabelPosition=bottom;verticalAlign=top;align=center;html=1;shape=mxgraph.aws3.s3;fillColor=#E05243;gradientColor=none;" vertex="1" parent="1">
          <mxGeometry x="83.5" y="371.75" width="76.5" height="93" as="geometry" />
        </mxCell>
        <mxCell id="GPVjwP7J1jZu0ZkHW_kr-6" value="AWS Athena" style="text;html=1;align=center;verticalAlign=middle;resizable=0;points=[];autosize=1;strokeColor=none;fillColor=none;" vertex="1" parent="1">
          <mxGeometry x="370" y="356.75" width="90" height="30" as="geometry" />
        </mxCell>
        <mxCell id="GPVjwP7J1jZu0ZkHW_kr-21" style="edgeStyle=orthogonalEdgeStyle;rounded=0;orthogonalLoop=1;jettySize=auto;html=1;exitX=1;exitY=0.5;exitDx=0;exitDy=0;exitPerimeter=0;" edge="1" parent="1" source="GPVjwP7J1jZu0ZkHW_kr-7">
          <mxGeometry relative="1" as="geometry">
            <mxPoint x="410" y="360" as="targetPoint" />
          </mxGeometry>
        </mxCell>
        <mxCell id="GPVjwP7J1jZu0ZkHW_kr-7" value="" style="strokeWidth=2;html=1;shape=mxgraph.flowchart.database;whiteSpace=wrap;" vertex="1" parent="1">
          <mxGeometry x="260" y="310" width="40" height="30" as="geometry" />
        </mxCell>
        <mxCell id="GPVjwP7J1jZu0ZkHW_kr-8" value="&lt;div style=&quot;text-align: start; color: rgb(51, 51, 51); background-color: rgb(245, 245, 245); font-family: Menlo, Monaco, &amp;quot;Courier New&amp;quot;, monospace; line-height: 18px;&quot;&gt;rtclickers-bucket&lt;/div&gt;" style="text;html=1;align=center;verticalAlign=middle;resizable=0;points=[];autosize=1;strokeColor=none;fillColor=none;" vertex="1" parent="1">
          <mxGeometry x="220" y="350" width="150" height="30" as="geometry" />
        </mxCell>
        <mxCell id="GPVjwP7J1jZu0ZkHW_kr-9" value="&lt;div style=&quot;font-style: normal; font-variant-caps: normal; font-weight: normal; letter-spacing: normal; text-align: start; text-indent: 0px; text-transform: none; word-spacing: 0px; -webkit-text-stroke-width: 0px; text-decoration: none; color: rgb(51, 51, 51); background-color: rgb(245, 245, 245); font-family: Menlo, Monaco, &amp;quot;Courier New&amp;quot;, monospace; font-size: 12px; line-height: 18px;&quot;&gt;&lt;div&gt;STO-Preprocessed&lt;/div&gt;&lt;/div&gt;" style="text;whiteSpace=wrap;html=1;" vertex="1" parent="1">
          <mxGeometry x="240" y="510" width="160" height="40" as="geometry" />
        </mxCell>
        <mxCell id="GPVjwP7J1jZu0ZkHW_kr-19" value="" style="edgeStyle=orthogonalEdgeStyle;rounded=0;orthogonalLoop=1;jettySize=auto;html=1;" edge="1" parent="1" source="GPVjwP7J1jZu0ZkHW_kr-10" target="GPVjwP7J1jZu0ZkHW_kr-5">
          <mxGeometry relative="1" as="geometry" />
        </mxCell>
        <mxCell id="GPVjwP7J1jZu0ZkHW_kr-10" value="" style="strokeWidth=2;html=1;shape=mxgraph.flowchart.database;whiteSpace=wrap;" vertex="1" parent="1">
          <mxGeometry x="260" y="470" width="40" height="30" as="geometry" />
        </mxCell>
      </root>
    </mxGraphModel>
  </diagram>
</mxfile>
